<?xml version="1.0" encoding="UTF-8" standalone="no"?>
<svg width="778px" height="410px" viewBox="0 0 778 410" version="1.1" xmlns="http://www.w3.org/2000/svg" xmlns:xlink="http://www.w3.org/1999/xlink">
    <!-- Generator: Sketch 3.7.1 (28215) - http://www.bohemiancoding.com/sketch -->
    <title>Group</title>
    <desc>Created with Sketch.</desc>
    <defs></defs>
    <g id="Page-1" stroke="none" stroke-width="1" fill="none" fill-rule="evenodd">
        <g id="Group">
            <rect id="Rectangle-1-Copy-4" fill="#8CC53F" x="0" y="0" width="182" height="185" rx="4"></rect>
            <text id="nginx" font-family="OpenSans-Bold, Open Sans" font-size="36" font-weight="bold" fill="#FFFFFF">
                <tspan x="41" y="98">nginx</tspan>
            </text>
            <rect id="Rectangle-1-Copy-3" fill="#8CC53F" x="298" y="0" width="182" height="185" rx="4"></rect>
            <rect id="Rectangle-1-Copy-5" fill="#8CC53F" x="340" y="309" width="99" height="101" rx="4"></rect>
            <rect id="Rectangle-1-Copy-6" fill="#8CC53F" x="559" y="309" width="99" height="101" rx="4"></rect>
            <text id="express" font-family="OpenSans-Bold, Open Sans" font-size="36" font-weight="bold" fill="#FFFFFF">
                <tspan x="320.365234" y="83">express</tspan>
                <tspan x="338.21582" y="132" font-size="20">(webpack)</tspan>
            </text>
            <text id="M" font-family="OpenSans-Bold, Open Sans" font-size="36" font-weight="bold" fill="#FFFFFF">
                <tspan x="373.02832" y="377">M</tspan>
            </text>
            <text id="FS" font-family="OpenSans-Bold, Open Sans" font-size="36" font-weight="bold" fill="#FFFFFF">
                <tspan x="589.207031" y="370">FS</tspan>
            </text>
            <rect id="Rectangle-1-Copy-2" fill="#8CC53F" x="596" y="0" width="182" height="185" rx="4"></rect>
            <text id="pub" font-family="OpenSans-Bold, Open Sans" font-size="36" font-weight="bold" fill="#FFFFFF">
                <tspan x="652" y="103">pub</tspan>
            </text>
            <text id="watch" font-family="OpenSans-Bold, Open Sans" font-size="36" font-weight="bold" fill="#4A4A4A">
                <tspan x="551.322266" y="287">watch</tspan>
            </text>
            <path d="M263.5,63.0151515 L224.535,63.0151515 L237.945,49.6864242 C238.92125,48.7160909 238.92125,47.1425606 237.945625,46.1722273 C236.969375,45.2018939 235.385625,45.2018939 234.409375,46.1722273 L216.7325,63.7425909 L216.7325,63.7425909 C216.61625,63.8581364 216.5125,63.9854848 216.42125,64.1215303 C216.379375,64.1842727 216.35,64.2519848 216.314375,64.3172121 C216.2725,64.3942424 216.225625,64.4675455 216.191875,64.5489242 C216.156875,64.6327879 216.136875,64.7203788 216.11125,64.8073485 C216.09125,64.876303 216.064375,64.9421515 216.05,65.0129697 C216.0175,65.1738636 216,65.3366212 216,65.5 L216,65.5 C216,65.5018636 216.000625,65.5031061 216.000625,65.5049697 C216.000625,65.6658636 216.0175,65.8273788 216.049375,65.9857879 C216.064375,66.0609545 216.0925,66.1299091 216.114375,66.2025909 C216.13875,66.2852121 216.158125,66.3690758 216.19125,66.4492121 C216.2275,66.5355606 216.27625,66.6138333 216.32125,66.6952121 C216.355,66.7560909 216.38125,66.8182121 216.420625,66.8766061 C216.5125,67.0138939 216.616875,67.1418636 216.73375,67.2580303 L234.41,84.8265303 C235.38625,85.7968636 236.969375,85.7968636 237.945625,84.8271515 C238.921875,83.8568182 238.921875,82.2826667 237.945625,81.3123333 L224.535625,67.9848485 L263.5,67.9848485 C264.880625,67.9848485 266,66.8722576 266,65.5 C266,64.1277424 264.880625,63.0151515 263.5,63.0151515 L263.5,63.0151515 Z" id="Shape" fill="#000000"></path>
            <path d="M263.5,135.015152 L224.535,135.015152 L237.945,121.686424 C238.92125,120.716091 238.92125,119.142561 237.945625,118.172227 C236.969375,117.201894 235.385625,117.201894 234.409375,118.172227 L216.7325,135.742591 L216.7325,135.742591 C216.61625,135.858136 216.5125,135.985485 216.42125,136.12153 C216.379375,136.184273 216.35,136.251985 216.314375,136.317212 C216.2725,136.394242 216.225625,136.467545 216.191875,136.548924 C216.156875,136.632788 216.136875,136.720379 216.11125,136.807348 C216.09125,136.876303 216.064375,136.942152 216.05,137.01297 C216.0175,137.173864 216,137.336621 216,137.5 L216,137.5 C216,137.501864 216.000625,137.503106 216.000625,137.50497 C216.000625,137.665864 216.0175,137.827379 216.049375,137.985788 C216.064375,138.060955 216.0925,138.129909 216.114375,138.202591 C216.13875,138.285212 216.158125,138.369076 216.19125,138.449212 C216.2275,138.535561 216.27625,138.613833 216.32125,138.695212 C216.355,138.756091 216.38125,138.818212 216.420625,138.876606 C216.5125,139.013894 216.616875,139.141864 216.73375,139.25803 L234.41,156.82653 C235.38625,157.796864 236.969375,157.796864 237.945625,156.827152 C238.921875,155.856818 238.921875,154.282667 237.945625,153.312333 L224.535625,139.984848 L263.5,139.984848 C264.880625,139.984848 266,138.872258 266,137.5 C266,136.127742 264.880625,135.015152 263.5,135.015152 L263.5,135.015152 Z" id="Shape" fill="#000000" transform="translate(241.000000, 137.499418) scale(-1, 1) translate(-241.000000, -137.499418) "></path>
            <path d="M563.5,63.0151515 L524.535,63.0151515 L537.945,49.6864242 C538.92125,48.7160909 538.92125,47.1425606 537.945625,46.1722273 C536.969375,45.2018939 535.385625,45.2018939 534.409375,46.1722273 L516.7325,63.7425909 L516.7325,63.7425909 C516.61625,63.8581364 516.5125,63.9854848 516.42125,64.1215303 C516.379375,64.1842727 516.35,64.2519848 516.314375,64.3172121 C516.2725,64.3942424 516.225625,64.4675455 516.191875,64.5489242 C516.156875,64.6327879 516.136875,64.7203788 516.11125,64.8073485 C516.09125,64.876303 516.064375,64.9421515 516.05,65.0129697 C516.0175,65.1738636 516,65.3366212 516,65.5 L516,65.5 C516,65.5018636 516.000625,65.5031061 516.000625,65.5049697 C516.000625,65.6658636 516.0175,65.8273788 516.049375,65.9857879 C516.064375,66.0609545 516.0925,66.1299091 516.114375,66.2025909 C516.13875,66.2852121 516.158125,66.3690758 516.19125,66.4492121 C516.2275,66.5355606 516.27625,66.6138333 516.32125,66.6952121 C516.355,66.7560909 516.38125,66.8182121 516.420625,66.8766061 C516.5125,67.0138939 516.616875,67.1418636 516.73375,67.2580303 L534.41,84.8265303 C535.38625,85.7968636 536.969375,85.7968636 537.945625,84.8271515 C538.921875,83.8568182 538.921875,82.2826667 537.945625,81.3123333 L524.535625,67.9848485 L563.5,67.9848485 C564.880625,67.9848485 566,66.8722576 566,65.5 C566,64.1277424 564.880625,63.0151515 563.5,63.0151515 L563.5,63.0151515 Z" id="Shape" fill="#000000"></path>
            <path d="M563.5,135.015152 L524.535,135.015152 L537.945,121.686424 C538.92125,120.716091 538.92125,119.142561 537.945625,118.172227 C536.969375,117.201894 535.385625,117.201894 534.409375,118.172227 L516.7325,135.742591 L516.7325,135.742591 C516.61625,135.858136 516.5125,135.985485 516.42125,136.12153 C516.379375,136.184273 516.35,136.251985 516.314375,136.317212 C516.2725,136.394242 516.225625,136.467545 516.191875,136.548924 C516.156875,136.632788 516.136875,136.720379 516.11125,136.807348 C516.09125,136.876303 516.064375,136.942152 516.05,137.01297 C516.0175,137.173864 516,137.336621 516,137.5 L516,137.5 C516,137.501864 516.000625,137.503106 516.000625,137.50497 C516.000625,137.665864 516.0175,137.827379 516.049375,137.985788 C516.064375,138.060955 516.0925,138.129909 516.114375,138.202591 C516.13875,138.285212 516.158125,138.369076 516.19125,138.449212 C516.2275,138.535561 516.27625,138.613833 516.32125,138.695212 C516.355,138.756091 516.38125,138.818212 516.420625,138.876606 C516.5125,139.013894 516.616875,139.141864 516.73375,139.25803 L534.41,156.82653 C535.38625,157.796864 536.969375,157.796864 537.945625,156.827152 C538.921875,155.856818 538.921875,154.282667 537.945625,153.312333 L524.535625,139.984848 L563.5,139.984848 C564.880625,139.984848 566,138.872258 566,137.5 C566,136.127742 564.880625,135.015152 563.5,135.015152 L563.5,135.015152 Z" id="Shape" fill="#000000" transform="translate(541.000000, 137.499418) scale(-1, 1) translate(-541.000000, -137.499418) "></path>
            <path d="M517.5,353.015152 L478.535,353.015152 L491.945,339.686424 C492.92125,338.716091 492.92125,337.142561 491.945625,336.172227 C490.969375,335.201894 489.385625,335.201894 488.409375,336.172227 L470.7325,353.742591 L470.7325,353.742591 C470.61625,353.858136 470.5125,353.985485 470.42125,354.12153 C470.379375,354.184273 470.35,354.251985 470.314375,354.317212 C470.2725,354.394242 470.225625,354.467545 470.191875,354.548924 C470.156875,354.632788 470.136875,354.720379 470.11125,354.807348 C470.09125,354.876303 470.064375,354.942152 470.05,355.01297 C470.0175,355.173864 470,355.336621 470,355.5 L470,355.5 C470,355.501864 470.000625,355.503106 470.000625,355.50497 C470.000625,355.665864 470.0175,355.827379 470.049375,355.985788 C470.064375,356.060955 470.0925,356.129909 470.114375,356.202591 C470.13875,356.285212 470.158125,356.369076 470.19125,356.449212 C470.2275,356.535561 470.27625,356.613833 470.32125,356.695212 C470.355,356.756091 470.38125,356.818212 470.420625,356.876606 C470.5125,357.013894 470.616875,357.141864 470.73375,357.25803 L488.41,374.82653 C489.38625,375.796864 490.969375,375.796864 491.945625,374.827152 C492.921875,373.856818 492.921875,372.282667 491.945625,371.312333 L478.535625,357.984848 L517.5,357.984848 C518.880625,357.984848 520,356.872258 520,355.5 C520,354.127742 518.880625,353.015152 517.5,353.015152 L517.5,353.015152 Z" id="Shape" fill="#000000"></path>
            <path d="M411.499418,242.015734 L372.534418,242.015734 L385.944418,228.687007 C386.920668,227.716673 386.920668,226.143143 385.945043,225.17281 C384.968793,224.202476 383.385043,224.202476 382.408793,225.17281 L364.731918,242.743173 L364.731918,242.743173 C364.615668,242.858719 364.511918,242.986067 364.420668,243.122113 C364.378793,243.184855 364.349418,243.252567 364.313793,243.317794 C364.271918,243.394825 364.225043,243.468128 364.191293,243.549507 C364.156293,243.63337 364.136293,243.720961 364.110668,243.807931 C364.090668,243.876885 364.063793,243.942734 364.049418,244.013552 C364.016918,244.174446 363.999418,244.337204 363.999418,244.500582 L363.999418,244.500582 C363.999418,244.502446 364.000043,244.503688 364.000043,244.505552 C364.000043,244.666446 364.016918,244.827961 364.048793,244.98637 C364.063793,245.061537 364.091918,245.130491 364.113793,245.203173 C364.138168,245.285794 364.157543,245.369658 364.190668,245.449794 C364.226918,245.536143 364.275668,245.614416 364.320668,245.695794 C364.354418,245.756673 364.380668,245.818794 364.420043,245.877188 C364.511918,246.014476 364.616293,246.142446 364.733168,246.258613 L382.409418,263.827113 C383.385668,264.797446 384.968793,264.797446 385.945043,263.827734 C386.921293,262.857401 386.921293,261.283249 385.945043,260.312916 L372.535043,246.985431 L411.499418,246.985431 C412.880043,246.985431 413.999418,245.87284 413.999418,244.500582 C413.999418,243.128325 412.880043,242.015734 411.499418,242.015734 L411.499418,242.015734 Z" id="Shape" fill="#000000" transform="translate(388.999418, 244.500000) scale(-1, 1) rotate(-270.000000) translate(-388.999418, -244.500000) "></path>
        </g>
    </g>
</svg>